<?xml version="1.0" encoding="utf-8"?>
<!-- Generator: Adobe Illustrator 27.0.0, SVG Export Plug-In . SVG Version: 6.00 Build 0)  -->
<svg version="1.1" id="Layer_1" xmlns="http://www.w3.org/2000/svg" xmlns:xlink="http://www.w3.org/1999/xlink" x="0px" y="0px"
	 viewBox="0 0 384 512" style="enable-background:new 0 0 384 512;" xml:space="preserve">
<style type="text/css">
	.st0{fill:none;stroke:#000000;stroke-width:48;stroke-linecap:round;stroke-miterlimit:10;}
</style>
<path d="M320,464c8.8,0,16-7.2,16-16V160h-80c-17.7,0-32-14.3-32-32V48H64c-8.8,0-16,7.2-16,16v384c0,8.8,7.2,16,16,16H320z M0,64
	C0,28.7,28.7,0,64,0h165.5c17,0,33.3,6.7,45.3,18.7l90.5,90.5c12,12,18.7,28.3,18.7,45.3V448c0,35.3-28.7,64-64,64H64
	c-35.3,0-64-28.7-64-64V64z"/>
<g>
	<path class="st0" d="M192.3,413.1l86.4-86.4"/>
	<path class="st0" d="M191.8,210.6v202.2c0,0.2,0.2,0.2,0.3,0.1"/>
	<path class="st0" d="M192,413.1l-86.4-86.4"/>
</g>
</svg>
